<?xml version="1.0" standalone="no"?>
<!DOCTYPE svg PUBLIC "-//W3C//DTD SVG 20010904//EN"
 "http://www.w3.org/TR/2001/REC-SVG-20010904/DTD/svg10.dtd">
<svg version="1.0" xmlns="http://www.w3.org/2000/svg"
 width="512.000000pt" height="512.000000pt" viewBox="0 0 512.000000 512.000000"
 preserveAspectRatio="xMidYMid meet">
<metadata>
Created by potrace 1.11, written by Peter Selinger 2001-2013
</metadata>
<g transform="translate(0.000000,512.000000) scale(0.100000,-0.100000)"
fill="#000000" stroke="none">
<path d="M0 2560 l0 -2560 2560 0 2560 0 0 2560 0 2560 -2560 0 -2560 0 0
-2560z m2457 1256 l28 -24 3 -844 c2 -586 0 -854 -8 -880 -19 -67 -109 -88
-156 -37 -18 20 -19 52 -19 891 l0 870 28 24 c37 32 87 32 124 0z m-429 -141
l22 -26 0 -659 0 -658 -26 -31 c-51 -61 -144 -31 -159 50 -3 19 -5 319 -3 667
l3 634 34 30 c28 25 39 29 70 24 21 -3 45 -16 59 -31z m889 1 l28 -24 3 -286
3 -286 129 0 130 0 0 205 0 205 28 31 c39 44 95 44 134 0 l29 -32 -3 -520 -3
-521 -28 -24 c-37 -32 -87 -32 -124 0 l-28 24 -3 221 -3 221 -130 0 -129 0 0
-290 c0 -203 -4 -297 -12 -315 -12 -27 -54 -55 -83 -55 -30 0 -72 29 -84 57
-8 21 -11 206 -9 696 l3 669 28 24 c37 32 87 32 124 0z m-1225 -237 c11 -6 26
-26 34 -46 14 -31 13 -38 -3 -71 -17 -34 -34 -44 -304 -167 -157 -72 -296
-135 -308 -140 -20 -9 16 -29 292 -159 283 -133 317 -152 331 -180 17 -37 12
-72 -17 -103 -44 -49 -47 -47 -484 157 -224 105 -419 202 -432 214 -30 31 -32
90 -2 120 31 31 799 384 839 385 18 1 42 -4 54 -10z m2331 -190 c193 -104 358
-198 365 -207 22 -29 25 -63 10 -96 -13 -27 -64 -57 -371 -218 -392 -208 -405
-212 -451 -157 -31 37 -33 77 -6 112 12 15 131 84 281 162 143 76 257 141 252
145 -4 5 -118 68 -253 140 -135 73 -258 146 -274 162 -24 26 -27 37 -22 67 7
44 46 81 87 81 19 0 151 -66 382 -191z m-2513 -1679 c0 -133 -4 -210 -10 -210
-6 0 -10 77 -10 210 0 133 4 210 10 210 6 0 10 -77 10 -210z m-430 -10 c0
-127 -4 -200 -10 -200 -6 0 -10 73 -10 200 0 127 4 200 10 200 6 0 10 -73 10
-200z m553 185 c7 -17 -8 -29 -28 -21 -17 6 -9 36 10 36 7 0 15 -7 18 -15z
m867 -75 l0 -90 115 0 115 0 0 90 c0 73 3 90 15 90 13 0 15 -29 15 -200 0
-171 -2 -200 -15 -200 -12 0 -15 17 -15 95 l0 95 -115 0 -115 0 0 -95 c0 -78
-3 -95 -15 -95 -13 0 -15 29 -15 200 0 171 2 200 15 200 12 0 15 -17 15 -90z
m-1148 -31 c34 -18 48 -70 48 -179 0 -82 -3 -100 -15 -100 -12 0 -15 19 -15
112 0 101 -2 114 -22 135 -30 32 -72 30 -108 -5 -32 -33 -44 -86 -38 -181 2
-44 0 -61 -9 -61 -10 0 -13 35 -13 140 0 114 3 140 14 140 9 0 12 -7 9 -20 -6
-23 12 -27 21 -5 11 31 88 45 128 24z m540 0 c34 -18 48 -70 48 -179 0 -82 -3
-100 -15 -100 -12 0 -15 19 -15 109 0 94 -3 112 -21 135 -28 35 -69 34 -111
-3 -32 -29 -32 -30 -36 -135 -3 -58 -8 -106 -13 -106 -5 0 -9 63 -9 140 0 87
4 140 10 140 6 0 10 -9 10 -21 0 -20 1 -20 31 5 33 28 85 34 121 15z m297 -5
c26 -19 51 -71 51 -109 l0 -25 -105 0 c-102 0 -105 -1 -105 -22 0 -35 36 -87
65 -94 28 -7 79 -2 109 11 14 6 18 5 14 -6 -7 -20 -75 -40 -113 -33 -113 21
-138 214 -36 277 34 21 90 21 120 1z m828 -8 c27 -24 28 -27 31 -145 3 -109 2
-121 -13 -121 -13 0 -16 6 -13 25 6 27 -6 34 -16 10 -3 -9 -22 -23 -42 -31
-80 -33 -148 31 -118 111 9 24 55 44 118 51 53 6 56 8 56 35 0 62 -65 87 -127
49 -28 -17 -33 -17 -33 -4 0 19 54 43 97 44 20 0 43 -9 60 -24z m253 10 c0 -9
-7 -12 -19 -9 -10 3 -29 0 -41 -7 -35 -19 -50 -70 -50 -170 0 -65 -3 -90 -12
-90 -10 0 -12 33 -10 140 2 79 7 140 13 140 5 0 9 -12 9 -27 1 -26 1 -27 12
-8 6 11 19 25 27 32 22 17 71 16 71 -1z m249 -2 c69 -49 67 -189 -3 -253 -36
-34 -106 -34 -141 -1 l-25 23 0 -86 c0 -71 -3 -87 -15 -87 -13 0 -15 29 -15
205 0 176 2 205 15 205 10 0 15 -10 16 -27 0 -16 3 -22 6 -15 9 23 66 52 103
52 20 0 46 -7 59 -16z m294 -4 c25 -20 47 -73 47 -112 0 -16 -12 -18 -106 -18
l-107 0 6 -37 c9 -52 46 -83 100 -83 24 0 53 7 66 16 22 16 23 15 19 -2 -7
-41 -111 -52 -164 -18 -26 18 -54 81 -54 124 0 49 30 110 64 131 41 25 97 24
129 -1z m247 6 c0 -8 -8 -12 -23 -9 -29 6 -66 -33 -78 -84 -5 -21 -9 -71 -9
-110 0 -42 -4 -73 -10 -73 -6 0 -10 53 -10 140 0 87 4 140 10 140 6 0 10 -12
10 -26 l0 -26 29 31 c30 32 81 43 81 17z m-2430 -136 c0 -118 -2 -140 -15
-140 -13 0 -15 22 -15 140 0 118 2 140 15 140 13 0 15 -22 15 -140z"/>
<path d="M2071 1603 c-17 -16 -33 -40 -37 -55 l-6 -28 91 0 91 0 0 30 c0 41
-39 80 -79 80 -20 0 -42 -10 -60 -27z"/>
<path d="M2930 1500 c-34 -8 -70 -41 -70 -64 0 -31 32 -56 70 -56 49 0 90 44
90 96 0 31 -3 34 -27 33 -16 -1 -44 -5 -63 -9z"/>
<path d="M3404 1619 c-34 -17 -54 -62 -54 -122 0 -45 5 -61 26 -86 21 -26 33
-31 68 -31 52 0 81 26 94 88 25 109 -49 192 -134 151z"/>
<path d="M3704 1619 c-23 -12 -54 -59 -54 -83 0 -13 14 -16 90 -16 84 0 90 1
90 21 0 67 -65 107 -126 78z"/>
</g>
</svg>
